<?xml version="1.0" standalone="no"?><svg xmlns="http://www.w3.org/2000/svg" viewBox="0 0 1440 320"><path fill="#0099ff" fill-opacity="0.85" d="M0,320L15,314.7C30,309,60,299,90,261.3C120,224,150,160,180,154.7C210,149,240,203,270,234.7C300,267,330,277,360,256C390,235,420,181,450,170.7C480,160,510,192,540,197.3C570,203,600,181,630,192C660,203,690,245,720,234.7C750,224,780,160,810,149.3C840,139,870,181,900,192C930,203,960,181,990,181.3C1020,181,1050,203,1080,218.7C1110,235,1140,245,1170,208C1200,171,1230,85,1260,96C1290,107,1320,213,1350,256C1380,299,1410,277,1425,266.7L1440,256L1440,320L1425,320C1410,320,1380,320,1350,320C1320,320,1290,320,1260,320C1230,320,1200,320,1170,320C1140,320,1110,320,1080,320C1050,320,1020,320,990,320C960,320,930,320,900,320C870,320,840,320,810,320C780,320,750,320,720,320C690,320,660,320,630,320C600,320,570,320,540,320C510,320,480,320,450,320C420,320,390,320,360,320C330,320,300,320,270,320C240,320,210,320,180,320C150,320,120,320,90,320C60,320,30,320,15,320L0,320Z"></path></svg>